<svg xmlns="http://www.w3.org/2000/svg" width="1200" height="630" viewBox="0 0 1200 630" role="img" aria-label="Chuyển đổi file âm thanh sang mã Arduino">
  <defs>
    <linearGradient id="bg" x1="0" y1="0" x2="1" y2="1">
      <stop offset="0" stop-color="#061019"/>
      <stop offset="0.52" stop-color="#0d1726"/>
      <stop offset="1" stop-color="#071018"/>
    </linearGradient>
    <linearGradient id="accent" x1="0" y1="0" x2="1" y2="1">
      <stop offset="0" stop-color="#39f5c8"/>
      <stop offset="1" stop-color="#93ffe4"/>
    </linearGradient>
  </defs>
  <rect width="1200" height="630" fill="url(#bg)"/>
  <path d="M0 40C220 110 350 80 510 180C700 300 870 260 1200 130V0H0Z" fill="#39f5c8" opacity=".12"/>
  <path d="M1200 520C980 450 840 520 680 430C470 310 300 380 0 510V630H1200Z" fill="#6982ff" opacity=".12"/>
  <rect x="72" y="70" width="1056" height="490" rx="28" fill="#0b1621" opacity=".92" stroke="#39f5c8" stroke-opacity=".36" stroke-width="3"/>
  <rect x="116" y="118" width="96" height="96" rx="22" fill="url(#accent)"/>
  <path d="M139 177c17-34 32-34 48 0s32 34 48 0" fill="none" stroke="#061019" stroke-width="10" stroke-linecap="round"/>
  <path d="M139 151h96" stroke="#061019" stroke-width="10" stroke-linecap="round"/>
  <text x="116" y="278" fill="#eafff7" font-family="Arial, Helvetica, sans-serif" font-size="52" font-weight="700">Chuyển đổi file âm thanh</text>
  <text x="116" y="346" fill="#eafff7" font-family="Arial, Helvetica, sans-serif" font-size="52" font-weight="700">sang mã Arduino</text>
  <text x="116" y="424" fill="#a8c3c4" font-family="Arial, Helvetica, sans-serif" font-size="30">Tạo audio_data.h từ MP3, WAV, OGG ngay trong trình duyệt</text>
  <rect x="116" y="478" width="336" height="54" rx="10" fill="#39f5c8" opacity=".14" stroke="#39f5c8" stroke-opacity=".34"/>
  <text x="140" y="514" fill="#93ffe4" font-family="Arial, Helvetica, sans-serif" font-size="24" font-weight="700">Arduino • ESP32 • ESP8266</text>
</svg>
